<svg width="298" height="262" viewBox="0 0 298 262" fill="none" xmlns="http://www.w3.org/2000/svg">
<path d="M139.307 24.4534L139.307 24.4542L17.3608 234.649C14.8983 238.908 14.8616 244.224 17.3598 248.505C19.8611 252.793 24.5163 255.504 29.5498 255.5H29.5503H273.448C278.482 255.504 283.137 252.808 285.64 248.506C288.141 244.208 288.099 238.909 285.64 234.65L139.307 24.4534ZM139.307 24.4534C141.414 20.8053 145.095 18.3347 149.29 17.6774H149.295L149.333 17.6714C155.066 16.7758 160.798 19.4412 163.688 24.453L163.689 24.4542L285.639 234.649L139.307 24.4534Z" fill="#FDEE1C" stroke="white"/>
<path d="M148.313 7.76148L148.313 7.76137C151.592 7.24828 154.715 8.80386 156.339 11.6232L156.339 11.6237L290.381 243.623C290.381 243.624 290.381 243.624 290.381 243.624C291.76 246.02 291.764 249.106 290.382 251.492C288.969 253.924 286.362 255.509 283.543 255.509H15.4578C12.6365 255.509 10.0321 253.924 8.61914 251.492C7.23785 249.112 7.24127 246.025 8.62026 243.623L142.662 11.6238L142.663 11.6226C143.827 9.59493 145.89 8.13723 148.313 7.76148ZM148.236 7.26739L148.237 7.27269L148.236 7.26739ZM149.935 33.7095L149.501 32.9452L149.066 33.7093L35.0993 233.969L34.674 234.717H35.5339H263.311H264.17L263.745 233.97L149.935 33.7095Z" fill="white" stroke="white"/>
<path d="M158.385 209.694C158.385 216.283 153.04 221.621 146.44 221.621C139.851 221.621 134.503 216.283 134.503 209.694C134.503 203.103 139.851 197.765 146.44 197.765C153.04 197.765 158.385 203.103 158.385 209.694Z" fill="white" stroke="white" stroke-width="1.65712" stroke-linecap="round"/>
<path d="M141.872 98.7808H151.292C156.076 98.7808 159.922 104.597 159.922 111.822L155.896 171.603C155.896 178.828 152.048 184.647 147.268 184.647H145.905C141.121 184.647 137.272 178.829 137.272 171.603L133.243 111.822C133.243 104.597 137.093 98.7808 141.872 98.7808Z" fill="white" stroke="white" stroke-width="1.57265" stroke-linecap="round"/>
</svg>