<svg width="378" height="378" viewBox="0 0 378 378" fill="none" xmlns="http://www.w3.org/2000/svg">
<g clip-path="url(#clip0_5_33)">
<path d="M359.069 90.4359H279.85L277.172 71.5074L275.117 58.7462C274.288 53.6056 271.566 49.3432 267.295 45.7831C262.922 42.1396 258.243 40.2298 253.098 40.2298H124.288C119.143 40.2298 114.411 42.0778 110.087 45.7831C105.767 49.4883 103.471 53.8341 102.681 58.7462L100.623 71.5074L97.7427 90.4359H18.9309C8.43462 90.4359 -0.00244141 98.8735 -0.00244141 108.957V318.839C-0.00244141 329.331 8.43462 337.768 18.9309 337.768H359.063C369.559 337.768 377.996 329.331 377.996 318.839V108.957C377.996 98.8735 369.559 90.4359 359.063 90.4359H359.069ZM355.162 314.932H22.6393V113.073H97.7451C109.062 113.073 118.834 104.653 120.379 93.7316L123.053 74.8032L125.111 63.0735H252.686L254.539 74.8032L257.419 93.7316C259.078 104.636 268.941 113.073 279.85 113.073H355.16V314.932H355.162Z" fill="black"/>
<path d="M318.533 166.777C328.41 166.777 336.641 158.344 336.641 148.468C336.641 138.384 328.616 129.947 318.533 129.947C308.45 129.947 300.425 138.384 300.425 148.468C300.425 158.344 308.656 166.777 318.533 166.777Z" fill="black"/>
<path d="M188.691 119.039C165.443 119.039 145.276 127.472 128.608 144.14C111.94 160.808 103.503 180.974 103.503 204.227C103.503 227.476 111.94 247.643 128.608 264.31C145.276 280.978 165.443 288.862 188.691 289.209C234.789 289.89 274.421 249.911 273.877 204.227C273.6 180.768 265.44 160.808 248.776 144.139C232.108 127.472 212.148 119.039 188.689 119.039H188.691ZM232.725 248.467C220.588 260.604 205.978 266.571 188.691 266.571C171.615 266.571 157.006 260.605 144.864 248.467C132.721 236.325 126.756 221.509 126.756 204.227C126.756 187.146 132.722 172.33 144.864 160.189C157.006 148.051 171.615 141.878 188.691 141.878C205.978 141.878 220.588 148.051 232.725 160.189C244.867 172.331 251.039 187.146 251.039 204.227C251.039 221.51 244.867 236.325 232.725 248.467Z" fill="black"/>
<line x1="374.066" y1="45.5305" x2="5.0659" y2="383.531" stroke="black" stroke-width="15"/>
</g>
<defs>
<clipPath id="clip0_5_33">
<rect width="378" height="378" fill="white"/>
</clipPath>
</defs>
</svg>