<svg width="256" height="256" viewBox="0 0 256 256" fill="none" xmlns="http://www.w3.org/2000/svg">
<path d="M52.2713 112.021C51.3492 113.899 50.7007 115.971 50.3443 118.205C50.1992 119.305 50.0853 120.422 50.0853 121.539L50.8954 172.519L33.2997 210.465C32.6843 211.582 32.2305 212.894 32.0378 214.253C31.066 220.534 35.3717 226.347 41.6376 227.319C46.4944 228.063 51.1565 225.586 53.3736 221.492L72.7513 180.014C73.1553 179.043 73.5117 178.04 73.6733 176.923C73.721 176.421 73.7707 175.853 73.7707 175.352L73.6091 143.848L103.395 156.833L108.185 187.657C109.157 192.158 112.847 195.751 117.654 196.497C123.918 197.419 129.73 193.113 130.685 186.896C130.847 185.827 130.847 184.76 130.733 183.755L124.873 146.584C124.161 142.99 121.782 139.897 118.462 138.328L91.8492 126.494L108.798 96.9978L117.201 107.682C118.058 108.637 119.175 109.448 120.423 109.949L152.442 119.307C156.683 120.229 161.037 117.995 162.705 113.901C164.582 109.255 162.348 103.994 157.75 102.114C157.605 102.066 157.444 102.017 157.297 101.969L129.469 93.761L108.539 68.6169C105.415 65.2827 101.207 62.9017 96.3497 62.1412C87.8502 60.8793 79.79 64.9263 75.5319 71.806L52.2713 112.021Z" fill="black"/>
<path d="M106.726 59.924C116.179 59.924 123.854 52.234 123.854 42.7641C123.854 33.3107 116.181 25.6207 106.726 25.6207C97.2572 25.6207 89.5679 33.3107 89.5679 42.7641C89.5679 52.234 97.2572 59.924 106.726 59.924Z" fill="black"/>
<path d="M155.5 161L189.708 215H121.292L155.5 161Z" fill="black"/>
<path d="M98.5 178L132.708 232H64.292L98.5 178Z" fill="black"/>
<path d="M207.5 173L241.708 227H173.292L207.5 173Z" fill="black"/>
</svg>