<svg width="334" height="334" viewBox="0 0 334 334" fill="none" xmlns="http://www.w3.org/2000/svg">
<path d="M277.88 196.087V236.219H299.064V176.234H62.1355V89.4216C62.1355 83.6142 57.4883 78.8613 51.6165 78.8613C45.8095 78.8613 41.1191 83.6142 41.1191 89.4216V236.219H62.1328V196.087H277.88Z" fill="#231F20"/>
<path d="M94.4739 131.73C105.012 131.73 113.525 123.219 113.525 112.656C113.525 102.158 105.015 93.6473 94.4739 93.6473C83.9548 93.6473 75.4445 102.158 75.4445 112.656C75.4418 123.217 83.9548 131.73 94.4739 131.73Z" fill="#231F20"/>
<path d="M299.404 160.456L299.342 134.245C299.28 125.944 292.267 120.199 284.157 119.207L134.579 104.272C134.285 104.21 134.009 104.083 133.755 104.083C128.559 104.083 124.376 108.306 124.376 113.462V141.701H85.2633C80.0241 141.701 75.8446 145.924 75.8446 151.08C75.8446 156.298 80.0268 160.459 85.2633 160.459L299.404 160.456Z" fill="#231F20"/>
</svg>